<svg width="28" height="23" viewBox="0 0 28 23" fill="none" xmlns="http://www.w3.org/2000/svg">
<path d="M3.1108 13.1429L14 23L24.8892 13.1429C26.7792 11.8069 28 9.68891 28 7.30151C28 3.27126 24.5154 0 20.2223 0C17.6792 0 15.4154 1.15394 14 2.92823C12.5846 1.15394 10.3208 0 7.7777 0C3.4846 0 0 3.27126 0 7.30151C0 9.68891 1.2208 11.8069 3.1108 13.1429ZM7.7777 2.62857C9.3569 2.62857 10.808 3.312 11.7586 4.5034L14 7.31269L16.2414 4.5034C17.192 3.312 18.6431 2.62857 20.2223 2.62857C22.967 2.62857 25.2 4.72486 25.2 7.30151C25.2 8.78271 24.4727 10.1463 23.2043 11.0433L23.0678 11.1399L22.9446 11.2509L14 19.3483L5.0547 11.2509L4.9315 11.1399L4.795 11.0433C3.5273 10.1463 2.8 8.78271 2.8 7.30151C2.8 4.72486 5.033 2.62857 7.7777 2.62857Z" fill="#99E8FE"/>
<path d="M7.7777 2.62857C9.3569 2.62857 10.808 3.312 11.7586 4.5034L14 7.31269L16.2414 4.5034C17.192 3.312 18.6431 2.62857 20.2223 2.62857C22.967 2.62857 25.2 4.72486 25.2 7.30151C25.2 8.78271 24.4727 10.1463 23.2043 11.0433L23.0678 11.1399L22.9446 11.2509L14 19.3483L5.0547 11.2509L4.9315 11.1399L4.795 11.0433C3.5273 10.1463 2.8 8.78271 2.8 7.30151C2.8 4.72486 5.033 2.62857 7.7777 2.62857Z" fill="#99E8FE"/>
</svg>
