<svg width="30" height="23" viewBox="0 0 30 23" fill="none" xmlns="http://www.w3.org/2000/svg">
<path d="M3.22858 13.1429L14.5301 23L25.8316 13.1429C27.7931 11.8069 29.0601 9.68891 29.0601 7.30151C29.0601 3.27126 25.4436 0 20.988 0C18.3486 0 15.9991 1.15394 14.5301 2.92823C13.0611 1.15394 10.7116 0 8.07218 0C3.61653 0 0 3.27126 0 7.30151C0 9.68891 1.26702 11.8069 3.22858 13.1429ZM8.07218 2.62857C9.71117 2.62857 11.2172 3.312 12.2038 4.5034L14.5301 7.31269L16.8563 4.5034C17.8429 3.312 19.349 2.62857 20.988 2.62857C23.8366 2.62857 26.1541 4.72486 26.1541 7.30151C26.1541 8.78271 25.3993 10.1463 24.0829 11.0433L23.9412 11.1399L23.8133 11.2509L14.5301 19.3483L5.24608 11.2509L5.11822 11.1399L4.97655 11.0433C3.66085 10.1463 2.90601 8.78271 2.90601 7.30151C2.90601 4.72486 5.22356 2.62857 8.07218 2.62857Z" fill="#99E8FE"/>
</svg>
